<?xml version="1.0" encoding="UTF-8"?>
<svg width="435px" height="435px" viewBox="0 0 435 435" version="1.1" xmlns="http://www.w3.org/2000/svg" xmlns:xlink="http://www.w3.org/1999/xlink">
    <!-- Generator: Sketch 47 (45396) - http://www.bohemiancoding.com/sketch -->
    <title>campaign</title>
    <desc>Created with Sketch.</desc>
    <defs>
        <circle id="path-1" cx="217.5" cy="217.5" r="217.5"></circle>
        <rect id="path-3" x="1.59685864" y="1.59876543" width="15.9685864" height="20.7839506"></rect>
    </defs>
    <g id="Page-1" stroke="none" stroke-width="1" fill="none" fill-rule="evenodd">
        <g id="Campaign" transform="translate(-192.000000, -100.000000)">
            <g id="campaign" transform="translate(192.000000, 100.000000)">
                <g id="Group-2">
                    <circle id="Oval" fill="#E6EBEE" cx="217.5" cy="217.5" r="217.5"></circle>
                    <g id="Oval">
                        <mask id="mask-2" fill="white">
                            <use xlink:href="#path-1"></use>
                        </mask>
                        <use id="Mask" fill="#E6EBEE" xlink:href="#path-1"></use>
                        <circle fill="#ECF4F6" mask="url(#mask-2)" cx="169.5" cy="181.5" r="187.5"></circle>
                    </g>
                </g>
                <g id="Group-2" transform="translate(65.000000, 88.000000)">
                    <g id="mountain">
                        <path d="M3.31771545,191.851852 C1.76718486,183.133086 0.958115183,174.157436 0.958115183,164.992593 C0.958115183,80.93349 69.0202094,12.7901235 152.979058,12.7901235 C236.937906,12.7901235 305,80.93349 305,164.992593 C305,174.157436 304.19093,183.133086 302.6404,191.851852 L3.31771545,191.851852 Z" id="Combined-Shape" fill="#3671A9"></path>
                        <g id="flag" transform="translate(142.120419, 0.000000)">
                            <rect id="Rectangle-142" fill="#FFFFFF" x="0" y="0" width="1.59685864" height="39.9691358" rx="0.798429319"></rect>
                            <polygon id="Rectangle-145" fill="#F09A27" points="15.9685864 4.7962963 15.9685864 25.5802469 33.5340314 25.5802469 29.4563388 15.4984798 33.5340314 4.7962963"></polygon>
                            <polygon id="Rectangle-145" fill="#E37C2D" points="15.9685864 22.382716 15.9685864 25.5802469 17.565445 22.382716"></polygon>
                            <mask id="mask-4" fill="white">
                                <use xlink:href="#path-3"></use>
                            </mask>
                            <use id="Rectangle-143" fill="#EFC22A" xlink:href="#path-3"></use>
                        </g>
                        <g id="Group" transform="translate(44.712042, 37.771605)">
                            <path d="M100.904203,3.7962963 C100.904203,3.7962963 113.693458,31.4359699 115.520494,33.2786148 C117.347531,35.1212597 136.531414,38.8065495 138.35845,41.5705168 C140.185487,44.3344842 168.504552,99.6138313 168.504552,99.6138313 L192.42315,77.6293538 L225.142682,130.938795 L237.018419,163.185081 L136.074654,220.307073 L35.1308901,197.274011 L100.904203,3.7962963 Z" id="Path-31" fill="#FFFFFF"></path>
                            <path d="M9.99413251,149.242238 L37.2508576,88.6837896 L80.8616176,51.9816962 L92.6728651,6.10407944 C92.6728651,6.10407944 97.2156526,-3.07144396 99.9413251,1.51631777 C102.666998,6.1040795 104.484113,38.2184112 104.484113,38.2184112 L99.9413251,85.0135816 L80.8616176,135.478953 L88.1300776,166.675732 L79.0445026,196.037407 L33.6166276,211.635802 L0.908557501,175.851261 L9.99413251,149.242238 Z" id="Path-30" fill="#67CEFD"></path>
                            <path d="M161.629866,86.5631529 C163.43501,83.7960589 189.609607,78.2618708 191.414751,77.3395062 C193.219895,76.4171415 193.219895,81.0289649 193.219895,81.0289649 L193.219895,120.690646 C193.219895,120.690646 180.583883,148.361586 177.876167,149.283951 C175.16845,150.206315 152.604143,138.215575 151.701571,136.370845 C150.798998,134.526116 159.824721,89.3302469 161.629866,86.5631529 Z" id="Path-32" fill="#67CEFD"></path>
                        </g>
                        <polygon id="Path-4" fill="#FFFFFF" points="130.055545 191.948366 125.404829 172.957038 144.568383 122.790327 149.338324 76.3604241 145.935875 41.4947323 159.911005 70.6049243 182.744187 78.5516942 206.573779 123.969136 196.191186 172.957038 222.520664 187.03179 238.089286 158.41153 238.089286 116.721549 269.656505 168.456569 278.447043 191.948366"></polygon>
                    </g>
                </g>
            </g>
        </g>
    </g>
</svg>