<?xml version="1.0" encoding="UTF-8"?>
<svg width="435px" height="435px" viewBox="0 0 435 435" version="1.1" xmlns="http://www.w3.org/2000/svg" xmlns:xlink="http://www.w3.org/1999/xlink">
    <!-- Generator: Sketch 47 (45396) - http://www.bohemiancoding.com/sketch -->
    <title>community</title>
    <desc>Created with Sketch.</desc>
    <defs>
        <circle id="path-1" cx="217.5" cy="217.5" r="217.5"></circle>
    </defs>
    <g id="Page-1" stroke="none" stroke-width="1" fill="none" fill-rule="evenodd">
        <g id="Community" transform="translate(-192.000000, -100.000000)">
            <g id="community" transform="translate(192.000000, 100.000000)">
                <g id="Group-2">
                    <circle id="Oval" fill="#E6EBEE" cx="217.5" cy="217.5" r="217.5"></circle>
                    <g id="Oval">
                        <mask id="mask-2" fill="white">
                            <use xlink:href="#path-1"></use>
                        </mask>
                        <use id="Mask" fill="#E6EBEE" xlink:href="#path-1"></use>
                        <circle fill="#ECF4F6" mask="url(#mask-2)" cx="169.5" cy="181.5" r="187.5"></circle>
                    </g>
                </g>
                <g id="Group" transform="translate(84.000000, 85.000000)">
                    <ellipse id="Oval" fill="#FFA727" cx="128" cy="166.5" rx="29" ry="29.5"></ellipse>
                    <ellipse id="Oval" fill="#DD9176" cx="228" cy="144.5" rx="28" ry="28.5"></ellipse>
                    <path d="M169.000007,217.999988 C180.3447,197.138156 202.289267,183 227.500003,183 C252.71074,183 274.655307,197.138156 286,217.999988 L169,218 L169.000007,217.999988 Z M169,218 L286,218 L286,234 L169,234 L169,218 Z" id="Combined-Shape" fill="#6C7A89"></path>
                    <circle id="Oval" fill="#B48E65" cx="42.5" cy="165.5" r="24.5"></circle>
                    <path d="M5.45519181e-06,224.826077 C9.11454517,208.240273 26.7452231,197 47.0000027,197 C67.2547824,197 84.8854603,208.240273 94,224.826077 L0,224.826087 L5.45519181e-06,224.826077 Z M0,224.826087 L93.8699503,224.826087 L93.8699503,237 L0,237 L0,224.826087 Z" id="Combined-Shape" fill="#6C7A89"></path>
                    <path d="M125.898546,80.4676104 C124.993015,88.6964736 118.135322,95.1232432 109.746269,95.3069835 L27,95.3110252 L27,45.5855856 L27.0363543,45.5855856 C27.6066232,36.8821139 34.8148206,30 43.6231343,30 C43.7465876,30 43.8697266,30.0013519 43.9925373,30.0040417 L109.746269,30 C118.385929,30.1932709 125.401369,37.0040977 125.963646,45.5855856 L126,45.5855856 L126,80.4676104 L125.898546,80.4676104 L125.898546,80.4676104 Z M27,95.3110252 L52.9178117,95.3110252 L27,121 L27,95.3110252 Z" id="Combined-Shape" fill="#3A539B"></path>
                    <path d="M203.898546,50.4676104 C202.993015,58.6964736 196.135322,65.1232432 187.746269,65.3069835 L105,65.3110252 L105,15.5855856 L105.036354,15.5855856 C105.606623,6.88211386 112.814821,0 121.623134,0 C121.746588,0 121.869727,0.00135189047 121.992537,0.0040417384 L187.746269,0 C196.385929,0.193270859 203.401369,7.00409771 203.963646,15.5855856 L204,15.5855856 L204,50.4676104 L203.898546,50.4676104 L203.898546,50.4676104 Z M105,65.3110252 L130.917812,65.3110252 L105,91 L105,65.3110252 Z" id="Combined-Shape" fill="#22A7F0" transform="translate(154.500000, 45.500000) scale(-1, 1) translate(-154.500000, -45.500000) "></path>
                    <path d="M59.0000081,246.999985 C72.4778913,222.561839 98.5487873,206 128.500004,206 C158.451221,206 184.522117,222.561839 198,246.999985 L59,247 L59.0000081,246.999985 Z M59,247 L198,247 L198,265 L59,265 L59,247 Z" id="Combined-Shape" fill="#95A5A6"></path>
                </g>
            </g>
        </g>
    </g>
</svg>