<?xml version="1.0" encoding="UTF-8"?>
<svg width="435px" height="435px" viewBox="0 0 435 435" version="1.1" xmlns="http://www.w3.org/2000/svg" xmlns:xlink="http://www.w3.org/1999/xlink">
    <!-- Generator: Sketch 47 (45396) - http://www.bohemiancoding.com/sketch -->
    <title>delegation</title>
    <desc>Created with Sketch.</desc>
    <defs>
        <circle id="path-1" cx="217.5" cy="217.5" r="217.5"></circle>
    </defs>
    <g id="Page-1" stroke="none" stroke-width="1" fill="none" fill-rule="evenodd">
        <g id="Delegation" transform="translate(-192.000000, -100.000000)">
            <g id="delegation" transform="translate(192.000000, 100.000000)">
                <g id="Group-2">
                    <circle id="Oval" fill="#E6EBEE" cx="217.5" cy="217.5" r="217.5"></circle>
                    <g id="Oval">
                        <mask id="mask-2" fill="white">
                            <use xlink:href="#path-1"></use>
                        </mask>
                        <use id="Mask" fill="#E6EBEE" xlink:href="#path-1"></use>
                        <circle fill="#ECF4F6" mask="url(#mask-2)" cx="169.5" cy="181.5" r="187.5"></circle>
                    </g>
                </g>
                <g id="Group-4" transform="translate(69.000000, 115.000000)">
                    <path d="M137.99135,148.406506 C122.287416,147.830702 108.786205,144.720159 97.4877161,139.074874 C86.1892269,133.42959 78.3103895,121.404632 73.8512039,103 L70,103 C71.7671527,131.757474 79.2631794,151.476338 92.48808,162.15659 C105.712981,172.836843 120.880737,178.197147 137.99135,178.237501 L137.99135,204 L189,164.393865 L137.99135,123.255078 L137.99135,148.406506 Z" id="Path-5" fill="#34AD62"></path>
                    <path d="M177.376918,79.2330266 L177.376918,99.244789 L135,66.5126661 L177.376918,35 L177.376918,55.4979614 C191.592057,55.5300696 204.193111,59.7950012 215.180081,68.2927563 C226.167052,76.7905114 232.394594,92.4798476 233.862707,115.360765 L230.663207,115.360765 C226.958609,100.717098 220.413036,91.1494266 211.026488,86.6577499 C201.63994,82.1660731 190.423417,79.6911654 177.376918,79.2330266 Z" id="Path-5" fill="#3D9AD9"></path>
                    <g id="Group-2">
                        <ellipse id="Oval" fill="#B48E65" cx="58.5755396" cy="25.1210937" rx="24.618705" ry="25.1210937"></ellipse>
                        <path d="M6.84800673e-06,93.6718625 C11.4416631,72.8612539 33.5737907,58.7578125 59.0000034,58.7578125 C84.4262162,58.7578125 106.558344,72.8612539 118,93.6718625 L0,93.671875 L6.84800673e-06,93.6718625 Z M0,93.671875 L118,93.671875 L118,109 L0,109 L0,93.671875 Z" id="Combined-Shape" fill="#95A5A6"></path>
                    </g>
                    <g id="Group" transform="translate(197.000000, 105.000000)">
                        <ellipse id="Oval" fill="#EFC22A" cx="50.4273504" cy="24.3940678" rx="23.9316239" ry="24.3940678"></ellipse>
                        <path d="M5.80339554e-06,87.3050741 C9.69632465,69.4487603 28.452365,57.3474576 50.0000029,57.3474576 C71.5476408,57.3474576 90.3036812,69.4487603 100,87.3050741 L0,87.3050847 L5.80339554e-06,87.3050741 Z M0,87.3050847 L100,87.3050847 L100,101 L0,101 L0,87.3050847 Z" id="Combined-Shape" fill="#6C7A89"></path>
                    </g>
                </g>
            </g>
        </g>
    </g>
</svg>