<?xml version="1.0" encoding="UTF-8"?>
<svg width="435px" height="435px" viewBox="0 0 435 435" version="1.1" xmlns="http://www.w3.org/2000/svg" xmlns:xlink="http://www.w3.org/1999/xlink">
    <!-- Generator: Sketch 47 (45396) - http://www.bohemiancoding.com/sketch -->
    <title>donation</title>
    <desc>Created with Sketch.</desc>
    <defs>
        <circle id="path-1" cx="217.5" cy="217.5" r="217.5"></circle>
    </defs>
    <g id="Page-1" stroke="none" stroke-width="1" fill="none" fill-rule="evenodd">
        <g id="Donations" transform="translate(-192.000000, -100.000000)">
            <g id="Group-3" transform="translate(100.000000, 100.000000)">
                <g id="donation" transform="translate(92.000000, 0.000000)">
                    <circle id="Oval" fill="#E6EBEE" cx="217.5" cy="217.5" r="217.5"></circle>
                    <g id="Oval">
                        <mask id="mask-2" fill="white">
                            <use xlink:href="#path-1"></use>
                        </mask>
                        <use id="Mask" fill="#E6EBEE" xlink:href="#path-1"></use>
                        <circle fill="#ECF4F6" mask="url(#mask-2)" cx="169.5" cy="181.5" r="187.5"></circle>
                    </g>
                    <g id="Group" transform="translate(82.000000, 102.000000)">
                        <path d="M212.862287,0 C198.32019,0 185.094589,5.48668544 175.004331,14.4688504 C164.922733,5.48668544 151.688472,0 137.137713,0 C105.593746,0 80,25.6769922 80,57.3536881 C80,57.8319253 80.0692893,58.2666864 80.0866117,58.7449237 C80.051967,59.1535991 80,59.5622746 80,59.9883405 C80,112.646608 175.004331,176 175.004331,176 C175.004331,176 270,112.646608 270,59.9883405 C270,59.5622746 269.948033,59.1535991 269.930711,58.7449237 C269.948033,58.2666864 270,57.8319253 270,57.3536881 C270,25.6769922 244.414915,0 212.862287,0 Z" id="Mask" fill="#E34940"></path>
                        <rect id="Rectangle" fill="#F7CA18" transform="translate(35.964894, 179.762691) rotate(-18.000000) translate(-35.964894, -179.762691) " x="13.9648944" y="133.262691" width="44" height="93"></rect>
                        <path d="M46.2554914,140.580812 L49.5264979,140.580812 L85.6517,83.9036733 C88.8938434,90.4276993 92.7177396,96.9052784 97.1233887,103.33641 C101.300144,109.433416 106.109011,115.487946 111.549988,121.5 L127.177805,121.491752 L160.707108,94.738129 L160.707105,94.7381264 C161.44716,94.1476235 162.316452,93.7406342 163.24392,93.5504281 C170.041153,92.1564439 175.372637,92.9555398 179.238373,95.9477158 C184.392776,99.8726984 186.205192,106.01659 184.675621,114.379389 L184.675625,114.37939 C184.524715,115.20448 184.16866,115.978347 183.64024,116.629745 L135.700438,175.726583 C132.096461,180.241553 127.943772,183.817052 123.242371,186.45308 C117.507169,189.373151 111.600772,191.437681 105.523181,192.646671 L65.5106758,201.409131 L46.2554914,140.580812 Z" id="Path-2" fill="#B48E65"></path>
                        <path d="M159,104.124851 C159.638035,108.432916 161.186228,111.811836 163.64458,114.261611 C166.239846,116.847822 169.74527,118.504887 174.160854,119.232806 L178.285038,111.415298 L178.285041,111.4153 C178.663094,110.698691 178.861337,109.900945 178.862709,109.090729 C178.868846,105.464084 177.967298,102.835711 176.158066,101.205611 C174.264238,99.4992907 171.470209,98.783012 167.775979,99.056775 L167.77598,99.0567828 C166.917972,99.1203659 166.090887,99.4042732 165.374713,99.8810482 L159,104.124851 Z" id="Path-3" fill="#FFE0B2"></path>
                    </g>
                </g>
            </g>
        </g>
    </g>
</svg>