<?xml version="1.0" encoding="UTF-8"?>
<svg width="100px" height="100px" viewBox="0 0 100 100" version="1.1" xmlns="http://www.w3.org/2000/svg" xmlns:xlink="http://www.w3.org/1999/xlink">
    <!-- Generator: Sketch 43.2 (39069) - http://www.bohemiancoding.com/sketch -->
    <title>avatar-100</title>
    <desc>Created with Sketch.</desc>
    <defs>
        <circle id="path-1" cx="50" cy="50" r="50"></circle>
    </defs>
    <g id="Page-1" stroke="none" stroke-width="1" fill="none" fill-rule="evenodd">
        <g id="avatar-100">
            <g id="Rectangle">
                <mask id="mask-2" fill="white">
                    <use xlink:href="#path-1"></use>
                </mask>
                <use id="Mask" fill="#D3F3FB" xlink:href="#path-1"></use>
                <path d="M-10.8738026,114.747717 C-9.74883047,118.122633 -8.5013366,120.873803 -7.12575184,123.251838 C-5.75016708,125.624304 -4.1239697,127.874248 -2.37525061,130.001671 C-0.626531521,132.251615 0.626531521,133.749722 1.50089107,134.624081 C2.24715972,135.498441 2.99899755,135.999666 3.37213188,136.3728 L46.8729116,178.375473 C47.7528403,179.249833 48.7497215,179.628536 50.0027846,179.628536 C51.2502785,179.628536 52.2527289,179.249833 53.1270884,178.375473 L96.4997772,136.623413 C107.125752,125.874916 112.5,115.499554 112.5,105.124192 C112.5,94.9994431 109.503787,86.9965471 103.628314,81.1210737 C97.7528403,75.3736912 89.6274226,72.5 79.1239697,72.5 C76.2502785,72.5 73.3765872,72.995656 70.3748051,73.9981065 C67.3785921,75.0005569 64.4993317,76.3705725 61.9987748,78.1248608 C59.3756961,79.7510581 57.1257518,81.3716863 55.2489419,82.875362 C53.5002228,84.3734685 51.6234128,85.871575 50.0027846,87.6258632 C48.3765872,85.871575 46.4997772,84.3734685 44.7510581,82.875362 C42.8742482,81.3716863 40.6243039,79.7510581 38.0012252,78.1248608 C35.5006683,76.3705725 32.6269771,75.0005569 29.6251949,73.9981065 C26.6234128,72.995656 23.7497215,72.5 20.8760303,72.5 C10.3725774,72.5 2.24715972,75.3736912 -3.62831366,81.1210737 C-9.50378703,86.9965471 -12.5,94.9994431 -12.5,105.124192 C-12.5,108.248496 -11.9987748,111.500891 -10.8738026,114.747717" id="Fill-180" fill="#B20015" mask="url(#mask-2)"></path>
            </g>
            <g id="Ethereum_logo_2014" transform="translate(28.959276, 9.276018)" fill-rule="nonzero">
                <polygon id="Shape" fill="#18A2B7" points="22.2856175 0 21.7988422 1.65451349 21.7988422 49.6646636 22.2856175 50.1505681 44.5713918 36.9775058"></polygon>
                <polygon id="Shape" fill="#4ADAF0" points="22.2857743 0 0 36.9775058 22.2857743 50.1507422 22.2857743 26.8480517"></polygon>
                <polygon id="Shape" fill="#0E5864" points="22.2856175 54.3702044 22.0113166 54.7045903 22.0113166 71.8068609 22.2856175 72.6081679 44.5846279 41.2037602"></polygon>
                <polygon id="Shape" fill="#18A2B7" points="22.2857743 72.6079241 22.2857743 54.3699606 0 41.2035164"></polygon>
                <polygon id="Shape" fill="#0E5864" points="22.2856175 50.1505158 44.5710435 36.9776277 22.2856175 26.8481736"></polygon>
                <polygon id="Shape" fill="#18A2B7" points="0.000156743384 36.9776451 22.2855827 50.1505332 22.2855827 26.848191"></polygon>
            </g>
        </g>
    </g>
</svg>