<svg width="22" height="24" viewBox="0 0 22 24" fill="none" xmlns="http://www.w3.org/2000/svg">
<path d="M21.8 4.1C21.9591 3.88783 22.0275 3.62113 21.99 3.35858C21.9524 3.09603 21.8122 2.85913 21.6 2.7C21.4949 2.62121 21.3754 2.56388 21.2482 2.53129C21.121 2.49869 20.9886 2.49148 20.8586 2.51005C20.596 2.54756 20.3591 2.68783 20.2 2.9L17.95 5.9C17.8202 6.0731 17.75 6.28363 17.75 6.5V15.5C17.75 15.7652 17.6446 16.0196 17.4571 16.2071C17.2696 16.3946 17.0152 16.5 16.75 16.5H16.5C16.3674 16.5 16.2402 16.4473 16.1464 16.3536C16.0527 16.2598 16 16.1326 16 16V1.5C16 1.10218 15.842 0.720644 15.5607 0.43934C15.2794 0.158035 14.8978 0 14.5 0L1.5 0C1.10218 0 0.720645 0.158035 0.43934 0.43934C0.158035 0.720644 0 1.10218 0 1.5V22.5C0 22.8978 0.158035 23.2794 0.43934 23.5607C0.720645 23.842 1.10218 24 1.5 24H14.5C14.8978 24 15.2794 23.842 15.5607 23.5607C15.842 23.2794 16 22.8978 16 22.5V19C16 18.8674 16.0527 18.7402 16.1464 18.6464C16.2402 18.5527 16.3674 18.5 16.5 18.5H16.75C17.5457 18.5 18.3087 18.1839 18.8713 17.6213C19.4339 17.0587 19.75 16.2956 19.75 15.5V12.433L19.777 12.416L21.277 11.416C21.3456 11.3704 21.4018 11.3085 21.4407 11.236C21.4796 11.1634 21.5 11.0823 21.5 11V8.5C21.5 8.36739 21.4473 8.24021 21.3536 8.14645C21.2598 8.05268 21.1326 8 21 8H19.75V6.833L21.8 4.1ZM10.117 18.219C9.78137 18.6239 9.35201 18.9409 8.86618 19.1423C8.38034 19.3437 7.85269 19.4236 7.329 19.375C7.0731 19.3254 6.82863 19.2288 6.608 19.09C6.49858 19.0217 6.4198 18.9137 6.38812 18.7887C6.35643 18.6636 6.37431 18.5312 6.438 18.419C7.00508 17.2714 7.87998 16.3041 8.965 15.625C9.02377 15.5956 9.07618 15.555 9.11924 15.5054C9.1623 15.4558 9.19517 15.3982 9.21597 15.3359C9.23677 15.2736 9.24509 15.2078 9.24047 15.1423C9.23584 15.0767 9.21835 15.0128 9.189 14.954C9.15965 14.8952 9.11901 14.8428 9.06941 14.7998C9.0198 14.7567 8.9622 14.7238 8.89989 14.703C8.83758 14.6822 8.77179 14.6739 8.70626 14.6785C8.64074 14.6832 8.57677 14.7006 8.518 14.73C6.518 15.722 4.943 18.736 4.271 20.854C4.25329 20.9185 4.22283 20.9787 4.18142 21.0312C4.14002 21.0837 4.08851 21.1273 4.02994 21.1596C3.97137 21.1918 3.90694 21.212 3.84044 21.2189C3.77395 21.2258 3.70675 21.2192 3.64281 21.1997C3.57888 21.1802 3.51951 21.148 3.46821 21.1052C3.41692 21.0623 3.37474 21.0096 3.34418 20.9501C3.31362 20.8907 3.29529 20.8257 3.29028 20.759C3.28526 20.6923 3.29367 20.6254 3.315 20.562C3.66966 19.4678 4.13367 18.4121 4.7 17.411C4.7493 17.3243 4.77155 17.2249 4.76388 17.1254C4.75622 17.026 4.719 16.9311 4.657 16.853C4.33266 16.4676 4.15206 15.9817 4.146 15.478C4.17699 15.0289 4.31821 14.5944 4.55718 14.213C4.79614 13.8315 5.12546 13.5148 5.516 13.291C6.2107 12.8641 6.97498 12.5625 7.774 12.4C8.68974 12.2228 9.55667 11.8507 10.316 11.309C10.3756 11.2641 10.4446 11.233 10.5178 11.2182C10.591 11.2034 10.6665 11.2052 10.7389 11.2234C10.8114 11.2417 10.8788 11.2759 10.9362 11.3235C10.9937 11.3712 11.0397 11.4312 11.071 11.499C11.4681 12.6126 11.5887 13.8061 11.4225 14.9766C11.2563 16.1472 10.8083 17.2599 10.117 18.219ZM14 7.5C14 7.63261 13.9473 7.75979 13.8536 7.85355C13.7598 7.94732 13.6326 8 13.5 8H2.5C2.36739 8 2.24022 7.94732 2.14645 7.85355C2.05268 7.75979 2 7.63261 2 7.5V2.5C2 2.36739 2.05268 2.24021 2.14645 2.14645C2.24022 2.05268 2.36739 2 2.5 2H13.5C13.6326 2 13.7598 2.05268 13.8536 2.14645C13.9473 2.24021 14 2.36739 14 2.5V7.5Z" fill="#AAAFCA"/>
</svg>
