<?xml version="1.0" encoding="UTF-8"?>
<!DOCTYPE svg PUBLIC "-//W3C//DTD SVG 1.1//EN" "http://www.w3.org/Graphics/SVG/1.1/DTD/svg11.dtd">
<svg width="26" height="26" viewBox="0 0 26 26" fill="none" xmlns="http://www.w3.org/2000/svg">
  <path d="M25.6555 9.36607C25.5516 9.26878 25.4296 9.19291 25.2963 9.14282C25.1631 9.09272 25.0213 9.06936 24.879 9.07409C24.7368 9.07882 24.5968 9.11154 24.4672 9.17037C24.3376 9.22921 24.2209 9.31301 24.1237 9.41699C22.1325 11.5457 21.125 13.07 21.125 13.9486V22.0736C21.125 22.3609 21.0109 22.6364 20.8077 22.8396C20.6045 23.0428 20.329 23.1569 20.0417 23.1569C19.7543 23.1569 19.4788 23.0428 19.2756 22.8396C19.0725 22.6364 18.9583 22.3609 18.9583 22.0736V7.44857C18.9583 6.73027 18.673 6.0414 18.1651 5.53349C17.6572 5.02558 16.9683 4.74023 16.25 4.74023H15.9813C15.9095 4.74023 15.8406 4.7117 15.7898 4.66091C15.739 4.61012 15.7105 4.54123 15.7105 4.4694V2.57357C15.7099 2.07094 15.51 1.58906 15.1546 1.23364C14.7992 0.878231 14.3173 0.678308 13.8147 0.677734H1.898C1.39508 0.678021 0.912813 0.877782 0.556993 1.2332C0.201173 1.58861 0.000860588 2.07065 0 2.57357L0 23.1569C0.000859293 23.6594 0.200874 24.1412 0.556226 24.4965C0.911577 24.8519 1.39329 25.0519 1.89583 25.0527H13.8125C14.3151 25.0522 14.797 24.8522 15.1524 24.4968C15.5078 24.1414 15.7078 23.6595 15.7083 23.1569V7.17773C15.7083 7.10591 15.7369 7.03702 15.7877 6.98623C15.8385 6.93544 15.9073 6.9069 15.9792 6.9069H16.25C16.3937 6.9069 16.5314 6.96397 16.633 7.06555C16.7346 7.16713 16.7917 7.30491 16.7917 7.44857V22.0736C16.7917 22.9355 17.1341 23.7622 17.7436 24.3717C18.3531 24.9812 19.1797 25.3236 20.0417 25.3236C20.9036 25.3236 21.7303 24.9812 22.3398 24.3717C22.9493 23.7622 23.2917 22.9355 23.2917 22.0736V19.661C23.2914 19.6106 23.3053 19.5612 23.3317 19.5183C23.3582 19.4754 23.3961 19.4408 23.4412 19.4183L24.5603 18.8582C24.8306 18.724 25.058 18.5168 25.2167 18.2601C25.3754 18.0033 25.4591 17.7073 25.4583 17.4055V16.1152C25.4583 15.6843 25.2871 15.2709 24.9824 14.9662C24.6776 14.6614 24.2643 14.4902 23.8333 14.4902H23.5517C23.4802 14.4902 23.4117 14.462 23.3609 14.4117C23.3102 14.3614 23.2814 14.293 23.2808 14.2216V14.0526C23.9465 12.8979 24.7625 11.8367 25.7075 10.8968C25.9035 10.6869 26.0082 10.4077 25.9984 10.1207C25.9887 9.83363 25.8653 9.56221 25.6555 9.36607ZM11.6447 16.9277C11.6447 17.0714 11.5877 17.2092 11.4861 17.3108C11.3845 17.4123 11.2467 17.4694 11.1031 17.4694H10.0197C9.87609 17.4694 9.73832 17.4123 9.63673 17.3108C9.53515 17.2092 9.47808 17.0714 9.47808 16.9277V13.6777C9.47808 13.5341 9.53515 13.3963 9.63673 13.2947C9.73832 13.1931 9.87609 13.1361 10.0197 13.1361H11.1031C11.2467 13.1361 11.3845 13.1931 11.4861 13.2947C11.5877 13.3963 11.6447 13.5341 11.6447 13.6777V16.9277ZM12.7281 7.44857C12.7281 7.59223 12.671 7.73 12.5694 7.83158C12.4679 7.93317 12.3301 7.99023 12.1864 7.99023H3.51975C3.37609 7.99023 3.23832 7.93317 3.13673 7.83158C3.03515 7.73 2.97808 7.59223 2.97808 7.44857V4.19857C2.97808 4.05491 3.03515 3.91713 3.13673 3.81555C3.23832 3.71397 3.37609 3.6569 3.51975 3.6569H12.1864C12.3301 3.6569 12.4679 3.71397 12.5694 3.81555C12.671 3.91713 12.7281 4.05491 12.7281 4.19857V7.44857Z" fill="white"/>
</svg>
