<svg id="Capa_1" data-name="Capa 1" xmlns="http://www.w3.org/2000/svg" viewBox="0 0 487 208" width="400">
  <path d="M200.8,103.2a107.5,107.5,0,0,1-7.1,39.2,95.1,95.1,0,0,1-19.4,31.3,91.1,91.1,0,0,1-30,20.6,97.3,97.3,0,0,1-37.6,7.3A102.9,102.9,0,0,1,67.5,194a101.3,101.3,0,0,1-31.6-20.5,101.8,101.8,0,0,1-21.1-31.1A98.2,98.2,0,0,1,7.2,104a98.2,98.2,0,0,1,7.6-38.4A98.1,98.1,0,0,1,35.9,34.8,96.3,96.3,0,0,1,67.2,14a100.4,100.4,0,0,1,38.7-7.6,107.1,107.1,0,0,1,44.9,9.8,86.8,86.8,0,0,1,34.6,27L152.7,71.6a58.7,58.7,0,0,0-21.1-17.9,57.7,57.7,0,0,0-25.7-5.9,48,48,0,0,0-20.3,4.3A50.3,50.3,0,0,0,69.7,64,53.3,53.3,0,0,0,59.1,81.8,64.7,64.7,0,0,0,55.4,104a67.1,67.1,0,0,0,3.7,22.7,54.8,54.8,0,0,0,11.1,17.8,49.8,49.8,0,0,0,16.5,11.9,50.4,50.4,0,0,0,20.8,4.4q15.9,0,27.6-9a41.9,41.9,0,0,0,15.7-22.7H103.5V89.9h97.3Zm22.3,95.4V9.4h46.5V198.6Zm129.9,0L280.3,9.4h50.3l50,140.8L431.4,9.4h48.4L406,198.6Z" style="fill: #5326ec;fill-opacity: 0.03"/>
</svg>
