<svg id="Capa_1" data-name="Capa 1" xmlns="http://www.w3.org/2000/svg" viewBox="0 0 487 208" width="400" >
  <path d="M178,176.5h0a95.2,95.2,0,0,1-30.7,21h0a98.1,98.1,0,0,1-38.4,7.5,103,103,0,0,1-40-7.8h0a103.9,103.9,0,0,1-32.3-20.9h-.1A102.7,102.7,0,0,1,15,144.6h0a99,99,0,0,1-7.7-39.2A99.1,99.1,0,0,1,15,66.1h0A99.3,99.3,0,0,1,36.6,34.6a97.7,97.7,0,0,1,32-21.2A100.3,100.3,0,0,1,108,5.7a109,109,0,0,1,45.7,9.9,87.3,87.3,0,0,1,35.5,27.7l1.8,2.3L153.8,77.8l-2-2.7a55.6,55.6,0,0,0-19.7-16.7h0A53,53,0,0,0,108,52.9a45.4,45.4,0,0,0-18.7,3.9A46.1,46.1,0,0,0,74.5,67.9h0a49.3,49.3,0,0,0-9.8,16.6h0a61.5,61.5,0,0,0-3.5,20.9,63.9,63.9,0,0,0,3.5,21.3A53.4,53.4,0,0,0,75,143.4a50.6,50.6,0,0,0,15.3,11,46.8,46.8,0,0,0,19.4,4c9.9,0,18.3-2.7,25.3-8.2h.1a38.4,38.4,0,0,0,13-16.8H102.5V88.3H205.1v16.3a109.6,109.6,0,0,1-7.2,39.9,97.8,97.8,0,0,1-19.9,32Zm-25.5-46.3c-.3,1.1-.7,2.2-1,3.2a41.1,41.1,0,0,1-14.6,19.3c-7.6,5.9-16.7,8.8-27.2,8.8a50.6,50.6,0,0,1-20.6-4.2,52.1,52.1,0,0,1-16.4-11.8,54.9,54.9,0,0,1-10.9-17.7A65.4,65.4,0,0,1,58,105.4a63.1,63.1,0,0,1,3.8-22A50.4,50.4,0,0,1,72.2,65.8,49.6,49.6,0,0,1,88,54a46.7,46.7,0,0,1,20-4.3,56.9,56.9,0,0,1,25.5,5.9,58,58,0,0,1,18.9,15.2c.6.8,1.3,1.6,1.9,2.5l32.4-28.1c-8.7-11.6-20.2-20.5-34.2-26.8A106.3,106.3,0,0,0,108,8.8a97.8,97.8,0,0,0-38.2,7.5,93.4,93.4,0,0,0-31,20.6,93.9,93.9,0,0,0-28.4,68.5,95.7,95.7,0,0,0,7.5,37.9,98.7,98.7,0,0,0,20.9,30.8,97.7,97.7,0,0,0,31.3,20.3,100.5,100.5,0,0,0,38.8,7.5,94.7,94.7,0,0,0,37.1-7.2,90.6,90.6,0,0,0,29.7-20.3A95,95,0,0,0,195,143.3a106.4,106.4,0,0,0,6.9-38.7V91.5H105.6v38.7Zm68.4,71.9V8.6h52.3V202.1Zm129.6,0L276.1,8.6h56.5l47.3,133.2L428,8.6h54.7L407.2,202.1Zm29.4-51L330.4,11.7H280.7L352.6,199h52.5l73-187.3H430.2ZM224.1,199h46V11.7h-46Z" style="fill-opacity: 0.25;fill: #5326ec;fill-rule: evenodd"/>
</svg>
