<?xml version="1.0" encoding="UTF-8"?>
<!DOCTYPE svg PUBLIC "-//W3C//DTD SVG 1.1//EN" "http://www.w3.org/Graphics/SVG/1.1/DTD/svg11.dtd">
<svg version="1.1" xmlns="http://www.w3.org/2000/svg" xmlns:xlink="http://www.w3.org/1999/xlink" x="0" y="0" width="1600" height="900" viewBox="0, 0, 1600, 900">
  <g id="Layer_2">
    <path d="M0,0 L1600,0 L1600,900 L0,900 L0,0 z" fill="#FFFFFF" display="none"/>
    <g>
      <path d="M995.293,454.397 L1195.456,454.411 L1195.456,464.253 C1194.655,475.732 1194.373,487.284 1192.968,498.678 C1178.069,619.668 1121.634,716.623 1022.575,787.623 C948.572,840.672 865.049,865.43 774.071,862.281 C668.871,858.663 578.175,819.509 502.124,746.708 C501.424,746.031 501.441,743.356 502.124,742.639 Q644.407,600.131 786.955,457.91 C789.195,455.858 792.091,454.67 795.127,454.558 L995.293,454.397 z" fill="#FFFFFF"/>
      <path d="M796.995,45.791 C808.214,46.643 819.456,47.14 830.635,48.347 Q928.831,58.985 1011.508,113.179 C1011.883,113.461 1012.243,113.762 1012.586,114.082 L977.743,148.852 C970.158,156.42 962.624,164.038 954.949,171.51 C953.964,172.145 952.728,172.252 951.648,171.798 Q868.407,123.913 772.451,127.751 C629.333,133.518 504.556,234.881 470.244,373.873 C449.002,459.992 460.814,541.806 504.556,619.025 C504.974,619.759 505.002,621.378 504.494,621.847 Q476.006,650.544 447.332,679.083 C447.145,679.269 446.914,679.421 446.48,679.771 C444.679,676.983 442.873,674.286 441.163,671.532 C393.99,595.277 373.165,512.398 379.904,422.937 C393.95,236.969 532.373,84.612 716.564,52.258 C735.187,48.991 754.228,48.161 773.078,46.203 L776.926,45.791 L796.995,45.791 z" fill="#FFFFFF"/>
      <path d="M1079.251,219.035 C1109.001,220.371 1133.35,237.153 1145.325,264.391 C1158.708,296.746 1147.387,334.05 1118.279,353.511 C1089.171,372.971 1050.373,369.176 1025.588,344.443 C1011.762,330.618 1004.004,311.861 1004.025,292.308 C1004.097,257.294 1028.878,227.201 1063.228,220.414 C1067.072,219.742 1068.326,219.45 1072.872,219.16 C1074.995,219.025 1077.125,219.077 1079.251,219.035 z" fill="#FFFFFF"/>
    </g>
  </g>
</svg>
