<svg width="20" height="16" viewBox="0 0 20 16" fill="none" xmlns="http://www.w3.org/2000/svg">
<path d="M19.6169 5.40418C19.3678 5.17429 19.0421 5.02104 18.6782 5.02104C18.6973 5.02104 18.7165 5.02104 18.7356 5.02104V3.04786C18.7356 2.24326 18.41 1.51529 17.8736 0.97889C17.3372 0.442492 16.6092 0.116821 15.8046 0.116821H2.93103C2.12644 0.116821 1.39847 0.442492 0.862069 0.97889C0.325671 1.51529 0 2.24326 0 3.04786V12.9521C0 13.7567 0.325671 14.4846 0.862069 15.021C1.39847 15.5574 2.12644 15.8831 2.93103 15.8831H15.8046C16.6092 15.8831 17.3372 15.5574 17.8736 15.021C18.41 14.4846 18.7356 13.7567 18.7356 12.9521V10.9597C18.7165 10.9597 18.6973 10.9597 18.6782 10.9597C19.0421 10.9597 19.3678 10.8065 19.6169 10.5766C19.8467 10.3467 20 10.0019 20 9.63789V6.34288C20 5.97889 19.8467 5.65322 19.6169 5.40418ZM17.682 12.9329C17.682 13.4502 17.4713 13.9099 17.1264 14.2548C16.7816 14.5996 16.3218 14.8103 15.8046 14.8103H2.93103C2.41379 14.8103 1.95402 14.5996 1.6092 14.2548C1.26437 13.9099 1.05364 13.4502 1.05364 12.9329V3.04786C1.05364 2.53061 1.26437 2.07084 1.6092 1.72602C1.95402 1.38119 2.41379 1.17046 2.93103 1.17046H15.8046C16.3218 1.17046 16.7816 1.38119 17.1264 1.72602C17.4713 2.07084 17.682 2.53061 17.682 3.04786V5.02104H11.7433C10.9387 5.02104 10.2299 5.34671 9.69349 5.86395C9.17624 6.38119 8.85057 7.10916 8.85057 7.91376V8.04786C8.85057 8.85245 9.17624 9.56127 9.69349 10.0977C10.2107 10.6149 10.9387 10.9406 11.7433 10.9406H17.682V12.9329ZM18.9464 9.63789C18.9464 9.71452 18.908 9.79115 18.8697 9.82947C18.8123 9.88694 18.7548 9.90609 18.6782 9.90609H11.7433C11.2452 9.90609 10.7663 9.69537 10.4406 9.3697C10.1149 9.04402 9.90421 8.5651 9.90421 8.06701V7.93291C9.90421 7.41567 10.1149 6.9559 10.4406 6.63023C10.7854 6.2854 11.2452 6.09383 11.7433 6.09383H18.6782C18.7548 6.09383 18.8314 6.13215 18.8697 6.17046C18.9272 6.22793 18.9464 6.2854 18.9464 6.36203V9.63789Z" fill="white"/>
</svg>
